<svg width="284" height="284" viewBox="0 0 284 284" fill="none" xmlns="http://www.w3.org/2000/svg">
<g clip-path="url(#clip0_26_38)">
<rect width="284" height="284" rx="84" fill="#F9F9FA"/>
<path d="M168.87 100.988L161.799 108.059L175.941 122.201L183.012 115.13L168.87 100.988ZM218.367 79.7746C222.273 75.8693 222.273 69.5377 218.367 65.6324C214.462 61.7272 208.131 61.7272 204.225 65.6324L218.367 79.7746ZM183.012 115.13L218.367 79.7746L204.225 65.6324L168.87 100.988L183.012 115.13Z" fill="#0E0F12"/>
<path d="M115.13 183.012L122.201 175.941L108.059 161.799L100.988 168.87L115.13 183.012ZM65.6324 204.225C61.7272 208.131 61.7272 214.462 65.6324 218.368C69.5376 222.273 75.8693 222.273 79.7745 218.368L65.6324 204.225ZM100.988 168.87L65.6324 204.225L79.7745 218.368L115.13 183.012L100.988 168.87Z" fill="#0E0F12"/>
<circle cx="142" cy="142" r="38" transform="rotate(-45 142 142)" stroke="#0E0F12" stroke-width="20"/>
<path fill-rule="evenodd" clip-rule="evenodd" d="M190.466 238.547C200.53 233.493 209.968 226.767 218.367 218.368C260.544 176.191 260.544 107.809 218.367 65.6325L204.225 79.7746C238.591 114.141 238.591 169.859 204.225 204.225C198.41 210.04 191.984 214.871 185.153 218.719L190.466 238.547Z" fill="#0E0F12"/>
<path fill-rule="evenodd" clip-rule="evenodd" d="M93.5337 45.4529C83.47 50.5068 74.0316 57.2333 65.6324 65.6325C23.4558 107.809 23.4558 176.191 65.6324 218.368L79.7746 204.225C45.4084 169.859 45.4084 114.141 79.7746 79.7746C85.5896 73.9596 92.0159 69.1285 98.8467 65.2814L93.5337 45.4529Z" fill="#0E0F12"/>
<circle cx="98" cy="53" r="20" fill="#7610DC"/>
<circle cx="142" cy="142" r="20" fill="#7610DC"/>
<circle cx="186" cy="231" r="20" fill="#7610DC"/>
</g>
<defs>
<clipPath id="clip0_26_38">
<rect width="284" height="284" fill="white"/>
</clipPath>
</defs>
</svg>
